<?xml version="1.0" encoding="utf-8"?>
<!-- Generator: Adobe Illustrator 19.2.0, SVG Export Plug-In . SVG Version: 6.00 Build 0)  -->
<svg version="1.1" id="Layer_1" xmlns="http://www.w3.org/2000/svg" xmlns:xlink="http://www.w3.org/1999/xlink" x="0px" y="0px"
	 viewBox="0 0 4484.7 497.2" style="enable-background:new 0 0 4484.7 497.2;" xml:space="preserve">
<style type="text/css">
	.st0{fill:#2A3654;}
	.st1{fill:#D89819;}
	.st2{fill:#E5A923;}
	.st3{fill:#F7BB26;}
	.st4{opacity:0.2;}
	.st5{fill:none;stroke:#FFFFFF;stroke-width:2;stroke-miterlimit:10;}
	.st6{fill:#FFFFFF;stroke:#FFFFFF;stroke-miterlimit:10;}
	.st7{fill:#FFFFFF;}
	.st8{fill:#2B3442;}
	.st9{fill:#FFFFFF;stroke:#2B3442;stroke-width:2;stroke-miterlimit:10;}
	.st10{fill:#2B3442;stroke:#FFFFFF;stroke-miterlimit:10;}
	.st11{fill:#FFFFFF;stroke:#2B3442;stroke-linecap:round;stroke-linejoin:round;stroke-miterlimit:10;}
	.st12{fill:#BABFC6;}
	.st13{fill:#8B93A0;stroke:#FFFFFF;stroke-miterlimit:10;}
	.st14{fill:#FFFFFF;stroke:#FFFFFF;stroke-width:2;stroke-linecap:round;stroke-linejoin:round;stroke-miterlimit:10;}
	.st15{fill:#7E8999;}
	.st16{fill:#7E8999;stroke:#FFFFFF;stroke-miterlimit:10;}
</style>
<rect class="st0" width="3384.7" height="497.2"/>
<g>
	<polygon class="st1" points="2926.7,413 3006.4,278 3124.7,278 3014.7,466 0,466 0,413 	"/>
	<polygon class="st2" points="2960.7,429 3118.8,155.2 3237.1,155.2 3048.7,482 0,482 0,429 	"/>
	<polygon class="st3" points="3070.1,444.5 3326.7,0 4484.7,0 4484.7,52.7 4484.7,52.7 4484.7,497.2 0,497.2 0,444.5 	"/>
</g>
<g class="st4">
	<g>
		<path class="st5" d="M1414.3,127.5c0-60.2-48.8-109-109-109s-109,48.8-109,109s48.8,109,109,109S1414.3,187.8,1414.3,127.5z
			 M1214.9,127.5c0-49.9,40.4-90.3,90.3-90.3s90.3,40.4,90.3,90.3s-40.4,90.3-90.3,90.3C1255.3,217.9,1214.9,177.4,1214.9,127.5z"/>
		<path class="st6" d="M1403.6,127.5c0-54.4-44.1-98.4-98.4-98.4c-54.4,0-98.4,44.1-98.4,98.4c0,54.4,44.1,98.4,98.4,98.4
			C1359.6,226,1403.6,181.9,1403.6,127.5z M1371.2,179.9c-5.6,7.2-16,8.4-23.2,2.8c-4.2-3.3-6.3-8.1-6.3-13c0-3.6,1.1-7.2,3.5-10.2
			l0.2-0.2c5.7-7.1,16.1-8.3,23.2-2.6C1375.7,162.4,1376.9,172.8,1371.2,179.9L1371.2,179.9z M1387.3,108.5l0.1,0.4
			c1.9,8.9-3.7,17.7-12.6,19.6s-17.6-3.7-19.6-12.5c-0.3-1.2-0.4-2.5-0.4-3.7c0-7.5,5.1-14.3,12.7-16.1
			C1376.3,94.1,1385.2,99.6,1387.3,108.5z M1341.6,51.6l0.2,0.1c8.2,4,11.6,13.9,7.7,22.1c-4,8.2-13.9,11.6-22.1,7.7
			c-5.9-2.8-9.4-8.8-9.4-14.9c0-2.4,0.5-4.8,1.6-7.1C1323.5,51.1,1333.3,47.6,1341.6,51.6z M1268.7,51.7c8.2-4,18-0.6,22.1,7.6
			c4,8.2,0.6,18.1-7.6,22.1l-0.3,0.1c-8.2,3.9-18.1,0.4-22-7.8c-1.1-2.3-1.6-4.7-1.6-7.1C1259.2,60.4,1262.7,54.5,1268.7,51.7
			L1268.7,51.7z M1235.6,128.6c-7.7-1.7-12.9-8.5-12.9-16.1c0-1.2,0.1-2.4,0.4-3.6c0,0,0-0.1,0-0.2c1.9-8.9,10.7-14.5,19.6-12.6
			s14.6,10.8,12.6,19.7c0,0.1,0,0.2,0,0.2C1253.3,125,1244.5,130.6,1235.6,128.6z M1272.8,127.5c0-17.9,14.5-32.4,32.4-32.4
			s32.4,14.5,32.4,32.4s-14.5,32.4-32.4,32.4S1272.8,145.4,1272.8,127.5z M1239.4,180.1l-0.1-0.1c-2.4-3-3.6-6.7-3.6-10.3
			c0-4.9,2.1-9.7,6.2-12.9c7.1-5.7,17.5-4.5,23.2,2.6s4.6,17.5-2.6,23.2C1255.5,188.3,1245.1,187.2,1239.4,180.1z M1305.2,211.7
			L1305.2,211.7c-9.2,0-16.6-7.4-16.6-16.5s7.4-16.5,16.5-16.5h0.1h0.1h0.1c9.1,0,16.5,7.4,16.5,16.5s-7.4,16.5-16.5,16.5
			C1305.4,211.7,1305.4,211.7,1305.2,211.7C1305.3,211.7,1305.2,211.7,1305.2,211.7z"/>
		<path class="st5" d="M1414.3,343.1c0-34.6-28.1-62.7-62.7-62.7s-62.7,28.1-62.7,62.7s28.1,62.7,62.7,62.7
			C1386.2,405.8,1414.3,377.7,1414.3,343.1z M1299.6,343.1c0-28.7,23.3-52,52-52s52,23.3,52,52s-23.3,52-52,52
			C1322.8,395,1299.6,371.8,1299.6,343.1z"/>
		<path class="st6" d="M1408.2,343.1c0-31.3-25.4-56.6-56.6-56.6c-31.3,0-56.6,25.4-56.6,56.6s25.3,56.6,56.6,56.6
			C1382.8,399.7,1408.2,374.3,1408.2,343.1z M1389.5,373.2c-3.2,4.1-9.2,4.8-13.3,1.6c-2.4-1.9-3.6-4.7-3.6-7.5c0-2.1,0.7-4.1,2-5.9
			l0.1-0.1c3.3-4.1,9.3-4.8,13.4-1.5C1392.1,363.1,1392.8,369.1,1389.5,373.2L1389.5,373.2z M1398.7,332.1l0.1,0.2
			c1.1,5.1-2.1,10.2-7.3,11.3c-5.1,1.1-10.1-2.1-11.3-7.2c-0.2-0.7-0.2-1.4-0.2-2.1c0-4.3,3-8.2,7.3-9.2
			C1392.4,323.8,1397.5,327,1398.7,332.1z M1372.4,299.4l0.1,0.1c4.7,2.3,6.7,8,4.4,12.7c-2.3,4.7-8,6.7-12.7,4.4
			c-3.4-1.6-5.4-5-5.4-8.6c0-1.4,0.3-2.8,0.9-4.1C1362,299.1,1367.7,297.1,1372.4,299.4z M1330.5,299.4c4.7-2.3,10.4-0.4,12.7,4.3
			c2.3,4.7,0.3,10.4-4.4,12.7l-0.2,0.1c-4.7,2.3-10.4,0.2-12.7-4.5c-0.6-1.3-0.9-2.7-0.9-4.1
			C1325.1,304.5,1327.1,301.1,1330.5,299.4L1330.5,299.4z M1311.5,343.7c-4.4-1-7.4-4.9-7.4-9.3c0-0.7,0.1-1.4,0.2-2.1v-0.1
			c1.1-5.1,6.2-8.4,11.3-7.2c5.1,1.1,8.4,6.2,7.3,11.3v0.1C1321.7,341.6,1316.6,344.8,1311.5,343.7z M1332.9,343.1
			c0-10.3,8.3-18.6,18.6-18.6c10.3,0,18.6,8.3,18.6,18.6s-8.3,18.6-18.6,18.6C1341.2,361.7,1332.9,353.4,1332.9,343.1z
			 M1313.7,373.3L1313.7,373.3c-1.4-1.8-2.1-3.9-2.1-6c0-2.8,1.2-5.6,3.6-7.4c4.1-3.3,10.1-2.6,13.4,1.5s2.6,10.1-1.5,13.4
			C1322.9,378,1317,377.4,1313.7,373.3z M1351.5,391.5L1351.5,391.5c-5.3,0-9.6-4.3-9.6-9.5s4.3-9.5,9.5-9.5h0.1c0,0,0,0,0.1,0h0.1
			c5.2,0,9.5,4.3,9.5,9.5s-4.2,9.5-9.5,9.5C1351.7,391.5,1351.6,391.5,1351.5,391.5C1351.6,391.5,1351.5,391.5,1351.5,391.5z"/>
		<line class="st5" x1="1414.3" y1="127.5" x2="1414.3" y2="343.1"/>
		<line class="st5" x1="1294.9" y1="370.1" x2="1204.6" y2="169.5"/>
	</g>
</g>
<g class="st4">
	<g>
		<path class="st7" d="M1743.7,112c0,9.5-7.7,17.2-17.2,17.2h-200.9c-9.5,0-17.2-7.7-17.2-17.2V91.3c0-9.5,7.7-17.2,17.2-17.2h200.9
			c9.5,0,17.2,7.7,17.2,17.2V112z"/>
		<g>
			<path class="st7" d="M1742.7,104.2c-3-5.9-9.2-10-16.2-10h-200.9c-7,0-13.2,4.1-16.2,10V91.3c0-9,7.3-16.2,16.2-16.2h200.9
				c9,0,16.2,7.3,16.2,16.2V104.2z"/>
			<path class="st8" d="M1726.5,76.1c8.4,0,15.2,6.8,15.2,15.2v9.5c-3.5-4.6-9.1-7.6-15.2-7.6h-200.9c-6.2,0-11.7,3-15.2,7.6v-9.5
				c0-8.4,6.8-15.2,15.2-15.2H1726.5 M1726.5,74.1h-200.9c-9.5,0-17.2,7.7-17.2,17.2V112c0,0.1,0,0.2,0,0.2c0.1-9.4,7.8-17,17.2-17
				h200.9c9.4,0,17.1,7.6,17.2,17c0-0.1,0-0.2,0-0.2V91.3C1743.7,81.8,1736,74.1,1726.5,74.1L1726.5,74.1z"/>
		</g>
		<path class="st7" d="M1731.2,146.9c0,4.2-3.4,7.6-7.6,7.6h-195.2c-4.2,0-7.6-3.4-7.6-7.6l0,0c0-4.2,3.4-7.6,7.6-7.6h195.2
			C1727.8,139.3,1731.2,142.7,1731.2,146.9L1731.2,146.9z"/>
		<path class="st7" d="M1724.1,173.7c0,4.2-3.4,7.6-7.6,7.6h-180.9c-4.2,0-7.6-3.4-7.6-7.6l0,0c0-4.2,3.4-7.6,7.6-7.6h180.9
			C1720.7,166.2,1724.1,169.6,1724.1,173.7L1724.1,173.7z"/>
		<path class="st7" d="M1717.5,199c0,4.2-3.4,7.6-7.6,7.6h-167.8c-4.2,0-7.6-3.4-7.6-7.6l0,0c0-4.2,3.4-7.6,7.6-7.6h167.8
			C1714.1,191.4,1717.5,194.8,1717.5,199L1717.5,199z"/>
		<path class="st7" d="M1712.4,224c0,4.2-3.4,7.6-7.6,7.6h-157.6c-4.2,0-7.6-3.4-7.6-7.6l0,0c0-4.2,3.4-7.6,7.6-7.6h157.6
			C1709,216.4,1712.4,219.8,1712.4,224L1712.4,224z"/>
		<path class="st7" d="M1706.5,249.4c0,4.2-3.4,7.6-7.6,7.6h-145.8c-4.2,0-7.6-3.4-7.6-7.6l0,0c0-4.2,3.4-7.6,7.6-7.6h145.8
			C1703.1,241.9,1706.5,245.3,1706.5,249.4L1706.5,249.4z"/>
		<path class="st7" d="M1626,235.8c-35.7,0-64.6,28.9-64.6,64.6s28.9,64.6,64.6,64.6s64.6-28.9,64.6-64.6S1661.7,235.8,1626,235.8z
			 M1626,327.7c-15.1,0-27.4-12.2-27.4-27.4c0-15.1,12.2-27.4,27.4-27.4s27.4,12.2,27.4,27.4S1641.1,327.7,1626,327.7z"/>
		<g>
			<g>
				<path class="st7" d="M1562.5,302.3c0-0.7,0-1.3,0-2c0-35.1,28.5-63.6,63.6-63.6s63.6,28.5,63.6,63.6c0,0.7,0,1.3,0,2
					c-7.3-28.6-33.4-49.4-63.5-49.4C1595.9,252.9,1569.8,273.7,1562.5,302.3z"/>
				<path class="st8" d="M1626,237.8c32.8,0,59.7,25.3,62.4,57.4c-3.8-10.2-10.2-19.5-18.5-26.8c-12.1-10.6-27.7-16.5-43.8-16.5
					s-31.7,5.9-43.8,16.5c-8.4,7.3-14.7,16.6-18.5,26.8C1566.3,263.1,1593.3,237.8,1626,237.8 M1626,235.8
					c-35.7,0-64.6,28.9-64.6,64.6c0,3.1,0.2,6.1,0.6,9.1c4.4-31.4,31.3-55.5,63.9-55.5s59.5,24.1,63.9,55.5c0.4-3,0.6-6,0.6-9.1
					C1690.6,264.7,1661.7,235.8,1626,235.8L1626,235.8z"/>
			</g>
		</g>
		<rect x="1604.5" y="122.8" class="st7" width="43.1" height="149.3"/>
		<circle class="st9" cx="1626" cy="129.3" r="37.4"/>
		<circle class="st7" cx="1626" cy="129.3" r="25.8"/>
		<circle class="st9" cx="1626" cy="129.3" r="14.4"/>
	</g>
</g>
<g class="st4">
	<g>
		<g>
			<path class="st8" d="M1949.9,93.4c-2.2,0-4.3-0.9-5.8-2.4c-1.6-1.6-2.4-3.6-2.4-5.8c0-2.2,0.9-4.3,2.4-5.8l10.5-10.5
				c1.6-1.6,3.6-2.4,5.8-2.4c2.2,0,4.3,0.9,5.8,2.4c1.6,1.6,2.4,3.6,2.4,5.8c0,2.2-0.9,4.3-2.4,5.8L1955.8,91
				C1954.2,92.5,1952.1,93.4,1949.9,93.4z"/>
			<g>
				<path class="st7" d="M1960.4,66.9L1960.4,66.9c2.1,0,4,0.8,5.5,2.3c3,3,3,7.9,0,10.9l-10.5,10.5c-1.5,1.5-3.4,2.3-5.5,2.3
					s-4-0.8-5.5-2.3c-3-3-3-7.9,0-10.9l10.5-10.5C1956.4,67.8,1958.3,66.9,1960.4,66.9 M1960.4,65.9c-2.2,0-4.5,0.9-6.2,2.6
					L1943.8,79c-3.4,3.4-3.4,8.9,0,12.4c1.7,1.7,3.9,2.6,6.2,2.6c2.2,0,4.5-0.9,6.2-2.6l10.5-10.5c3.4-3.4,3.4-8.9,0-12.4
					C1964.9,66.8,1962.6,65.9,1960.4,65.9L1960.4,65.9z"/>
			</g>
		</g>
		<g>
			
				<rect x="1822.3" y="163" transform="matrix(0.7071 -0.7071 0.7071 0.7071 397.5125 1356.7721)" class="st7" width="28.5" height="71.1"/>
			<path class="st7" d="M1821.4,164.7l48.9,48.9l-18.7,18.7l-48.9-48.9L1821.4,164.7 M1821.4,161.9l-21.6,21.6l51.7,51.7l21.6-21.6
				L1821.4,161.9L1821.4,161.9z"/>
		</g>
		
			<rect x="1841.4" y="210.6" transform="matrix(0.7071 -0.7071 0.7071 0.7071 389.1318 1376.9073)" class="st10" width="30.5" height="16.2"/>
		<g>
			<polygon class="st8" points="1826.5,166.3 1840.2,159.8 1875.2,194.9 1868.8,208.6 			"/>
			<g>
				<path class="st7" d="M1840.1,160.4l34.5,34.5l-6,12.7l-41.3-41.3L1840.1,160.4 M1840.3,159.2l-14.7,6.9l43.3,43.3l6.9-14.7
					L1840.3,159.2L1840.3,159.2z"/>
			</g>
		</g>
		<g>
			<polygon class="st8" points="1794,198.4 1801.6,185.9 1849.2,233.5 1836.7,241.1 			"/>
			<g>
				<path class="st7" d="M1801.7,186.7l46.7,46.7l-11.6,7.1l-42.2-42.2L1801.7,186.7 M1801.5,185.1l-8.2,13.4l43.3,43.3l13.4-8.2
					L1801.5,185.1L1801.5,185.1z"/>
			</g>
		</g>
		<g>
			<polygon class="st7" points="1845.1,162.6 1941.6,74.6 1960.4,93.5 1872.5,190 			"/>
			<path class="st7" d="M1941.6,76l17.5,17.5l-86.6,95l-25.9-25.9L1941.6,76 M1941.6,73.3l-98,89.3l28.9,28.9l89.3-98L1941.6,73.3
				L1941.6,73.3z"/>
		</g>
		<polygon class="st10" points="1872.5,191.4 1866.2,185.1 1957.9,89.5 1961.8,93.5 		"/>
		<g>
			
				<rect x="1788.2" y="206.5" transform="matrix(0.7071 -0.7071 0.7071 0.7071 364.4343 1343.0498)" class="st7" width="30.5" height="50.3"/>
			<path class="st7" d="M1796.5,204.4l34.2,34.2l-20.2,20.2l-34.2-34.2L1796.5,204.4 M1796.5,201.6l-23,23l37,37l23-23L1796.5,201.6
				L1796.5,201.6z"/>
		</g>
		
			<rect x="1801.6" y="240.2" transform="matrix(0.7071 -0.7071 0.7071 0.7071 358.4629 1357.4713)" class="st10" width="32.5" height="11.6"/>
		<g>
			
				<rect x="1808.1" y="197.6" transform="matrix(0.7071 -0.7071 0.7071 0.7071 372.8177 1346.6436)" class="st8" width="7.8" height="51.3"/>
			<g>
				<path class="st7" d="M1796.5,203l35.6,35.6l-4.8,4.8l-35.6-35.6L1796.5,203 M1796.5,201.6l-6.2,6.2l37,37l6.2-6.2L1796.5,201.6
					L1796.5,201.6z"/>
			</g>
		</g>
		<g>
			
				<rect x="1775.7" y="245.2" transform="matrix(0.7071 -0.7071 0.7071 0.7071 345.9774 1335.4424)" class="st8" width="18.6" height="9.7"/>
			<g>
				<path class="st7" d="M1788.2,240.7l6.2,6.2l-12.5,12.5l-6.2-6.2L1788.2,240.7 M1788.2,239.3l-13.9,13.9l7.6,7.6l13.9-13.9
					L1788.2,239.3L1788.2,239.3z"/>
			</g>
		</g>
	</g>
	<g>
		<g>
			<path class="st8" d="M1867,350.3c-2.2,0-4.3-0.9-5.8-2.4c-1.6-1.6-2.4-3.6-2.4-5.8c0-2.2,0.9-4.3,2.4-5.8l10.5-10.5
				c1.6-1.6,3.6-2.4,5.8-2.4c2.2,0,4.3,0.9,5.8,2.4c1.6,1.6,2.4,3.6,2.4,5.8c0,2.2-0.9,4.3-2.4,5.8l-10.5,10.5
				C1871.2,349.4,1869.2,350.3,1867,350.3z"/>
			<g>
				<path class="st7" d="M1877.4,323.9L1877.4,323.9c2.1,0,4,0.8,5.5,2.3s2.3,3.4,2.3,5.5s-0.8,4-2.3,5.5l-10.5,10.5
					c-1.5,1.5-3.4,2.3-5.5,2.3s-4-0.8-5.5-2.3c-3-3-3-7.9,0-10.9l10.5-10.5C1873.4,324.7,1875.3,323.9,1877.4,323.9 M1877.4,322.9
					c-2.2,0-4.5,0.9-6.2,2.6l-10.5,10.5c-3.4,3.4-3.4,8.9,0,12.4c1.7,1.7,3.9,2.6,6.2,2.6c2.2,0,4.5-0.9,6.2-2.6l10.5-10.5
					c3.4-3.4,3.4-8.9,0-12.4C1881.9,323.7,1879.6,322.9,1877.4,322.9L1877.4,322.9z"/>
			</g>
		</g>
		<g>
			
				<rect x="1976.5" y="182.6" transform="matrix(0.7071 -0.7071 0.7071 0.7071 428.8439 1471.5859)" class="st7" width="28.5" height="71.1"/>
			<path class="st7" d="M1975.7,184.4l48.9,48.9l-18.7,18.7l-48.9-48.9L1975.7,184.4 M1975.7,181.6l-21.6,21.6l51.7,51.7l21.6-21.6
				L1975.7,181.6L1975.7,181.6z"/>
		</g>
		
			<rect x="1955.4" y="190" transform="matrix(0.7071 -0.7071 0.7071 0.7071 437.1153 1451.5084)" class="st10" width="30.5" height="16.2"/>
		<g>
			<polygon class="st8" points="1952.1,221.9 1958.5,208.2 2000.8,250.5 1987.1,256.9 			"/>
			<g>
				<path class="st7" d="M1958.7,209l41.3,41.3l-12.7,6l-34.5-34.5L1958.7,209 M1958.4,207.3l-6.9,14.7l35.5,35.5l14.7-6.9
					L1958.4,207.3L1958.4,207.3z"/>
			</g>
		</g>
		<g>
			<polygon class="st8" points="1978.1,183.3 1990.6,175.6 2033.4,218.4 2025.8,230.9 			"/>
			<g>
				<path class="st7" d="M1990.6,176.3l42.2,42.2l-7.1,11.6l-46.7-46.7L1990.6,176.3 M1990.7,175l-13.4,8.2l48.5,48.5l8.2-13.4
					L1990.7,175L1990.7,175z"/>
			</g>
		</g>
		<g>
			<polygon class="st7" points="1866.9,323.3 1954.9,226.8 1982.3,254.1 1885.8,342.1 			"/>
			<path class="st7" d="M1954.9,228.2l25.9,25.9l-95,86.6l-17.5-17.5L1954.9,228.2 M1954.8,225.3l-89.3,98l20.2,20.2l98-89.3
				L1954.8,225.3L1954.8,225.3z"/>
		</g>
		<polygon class="st10" points="1954.8,225.3 1961.2,231.6 1869.4,327.2 1865.5,323.3 		"/>
		<g>
			
				<rect x="2008.6" y="160" transform="matrix(0.7071 -0.7071 0.7071 0.7071 461.8419 1485.2931)" class="st7" width="30.5" height="50.3"/>
			<path class="st7" d="M2016.9,158l34.2,34.2l-20.2,20.2l-34.2-34.2L2016.9,158 M2016.9,155.2l-23,23l37,37l23-23L2016.9,155.2
				L2016.9,155.2z"/>
		</g>
		
			<rect x="1993.2" y="165" transform="matrix(0.7071 -0.7071 0.7071 0.7071 467.7842 1470.9442)" class="st10" width="32.5" height="11.6"/>
		<g>
			
				<rect x="2011.5" y="167.8" transform="matrix(0.7071 -0.7071 0.7071 0.7071 453.5014 1481.795)" class="st8" width="7.8" height="51.3"/>
			<g>
				<path class="st7" d="M2000.1,173.3l35.6,35.6l-4.8,4.8l-35.6-35.6L2000.1,173.3 M2000.1,171.9l-6.2,6.2l37,37l6.2-6.2
					L2000.1,171.9L2000.1,171.9z"/>
			</g>
		</g>
		<g>
			
				<rect x="2033" y="161.9" transform="matrix(0.7071 -0.7071 0.7071 0.7071 480.2707 1492.9741)" class="st8" width="18.6" height="9.7"/>
			<g>
				<path class="st7" d="M2045.5,157.4l6.2,6.2l-12.5,12.5l-6.2-6.2L2045.5,157.4 M2045.5,156l-13.9,13.9l7.6,7.6l13.9-13.9
					L2045.5,156L2045.5,156z"/>
			</g>
		</g>
	</g>
</g>
<g class="st4">
	<g>
		<path class="st11" d="M2240.8,65.1h-82.6l-41.3,71.6l41.3,71.6h82.6l41.3-71.6L2240.8,65.1z M2199.4,173
			c-20.1,0-36.3-16.3-36.3-36.3c0-20.1,16.3-36.3,36.3-36.3c20.1,0,36.3,16.3,36.3,36.3C2235.8,156.7,2219.5,173,2199.4,173z"/>
		<path class="st12" d="M2234.6,75.8h-70.3l-35.2,60.9l35.2,60.9h70.3l35.2-60.9L2234.6,75.8z M2199.4,173
			c-20.1,0-36.3-16.3-36.3-36.3c0-20.1,16.3-36.3,36.3-36.3c20.1,0,36.3,16.3,36.3,36.3C2235.8,156.7,2219.5,173,2199.4,173z"/>
		<path class="st11" d="M2345.9,157.7h-58.4l-29.2,50.6l29.2,50.6h58.4l29.2-50.6L2345.9,157.7z M2316.7,233.9
			c-14.2,0-25.7-11.5-25.7-25.7s11.5-25.7,25.7-25.7s25.7,11.5,25.7,25.7S2330.9,233.9,2316.7,233.9z"/>
		<path class="st12" d="M2341.5,165.2h-49.7l-24.9,43.1l24.9,43.1h49.7l24.9-43.1L2341.5,165.2z M2316.7,233.9
			c-14.2,0-25.7-11.5-25.7-25.7s11.5-25.7,25.7-25.7s25.7,11.5,25.7,25.7S2330.9,233.9,2316.7,233.9z"/>
		<path class="st11" d="M2239,228h-49.5l-24.7,42.8l24.7,42.8h49.5l24.7-42.8L2239,228z M2214.3,292.6c-12,0-21.7-9.7-21.7-21.8
			c0-12,9.7-21.7,21.7-21.7s21.7,9.7,21.7,21.7C2236,282.9,2226.3,292.6,2214.3,292.6z"/>
		<path class="st12" d="M2235.3,234.4h-42.1l-21,36.5l21,36.5h42.1l21-36.5L2235.3,234.4z M2214.3,292.6c-12,0-21.7-9.7-21.7-21.8
			c0-12,9.7-21.7,21.7-21.7s21.7,9.7,21.7,21.7C2236,282.9,2226.3,292.6,2214.3,292.6z"/>
	</g>
</g>
<g class="st4">
	<path class="st13" d="M2539.2,353.1c0,8-6.5,14.5-14.5,14.5h-6.7c-8,0-14.5-6.5-14.5-14.5v-91.8c0-8,6.5-14.5,14.5-14.5h6.7
		c8,0,14.5,6.5,14.5,14.5V353.1z"/>
	<g>
		<path class="st7" d="M2518.1,366.6c4.8-2.7,7.9-7.8,7.9-13.5v-91.8c0-5.7-3.1-10.8-7.9-13.5h6.6c7.4,0,13.5,6,13.5,13.5v91.8
			c0,7.4-6,13.5-13.5,13.5L2518.1,366.6L2518.1,366.6z"/>
		<path class="st7" d="M2524.7,248.8c6.9,0,12.5,5.6,12.5,12.5v91.8c0,6.9-5.6,12.5-12.5,12.5h-3.4c3.5-3.1,5.7-7.6,5.7-12.5v-91.8
			c0-4.9-2.2-9.4-5.7-12.5L2524.7,248.8 M2524.7,246.8h-6.7c-1.3,0-2.5,0.2-3.7,0.5c6.2,1.6,10.7,7.3,10.7,14v91.8
			c0,6.7-4.6,12.3-10.7,14c1.2,0.3,2.4,0.5,3.7,0.5h6.7c8,0,14.5-6.5,14.5-14.5v-91.8C2539.2,253.3,2532.7,246.8,2524.7,246.8
			L2524.7,246.8z"/>
	</g>
	<path class="st14" d="M2532,94.3c0,5.9-4.8,10.7-10.7,10.7l0,0c-5.9,0-10.7-4.8-10.7-10.7V46.2c0-5.9,4.8-10.7,10.7-10.7l0,0
		c5.9,0,10.7,4.8,10.7,10.7V94.3z"/>
	<path class="st13" d="M2553.9,84c0,8-6.5,14.5-14.5,14.5h-36.2c-8,0-14.5-6.5-14.5-14.5V71.3c0-8,6.5-14.5,14.5-14.5h36.2
		c8,0,14.5,6.5,14.5,14.5V84z"/>
	<rect x="2480.8" y="94.4" class="st13" width="81.1" height="172.4"/>
	<rect x="2539.2" y="94.4" class="st14" width="22.7" height="172.4"/>
	<g>
		<path class="st7" d="M2480.1,104c-5.3,0-9.6-4.3-9.6-9.6c0-5.3,4.3-9.6,9.6-9.6h82.6c5.3,0,9.6,4.3,9.6,9.6c0,5.3-4.3,9.6-9.6,9.6
			H2480.1z"/>
		<path class="st7" d="M2562.6,85.8c4.7,0,8.6,3.9,8.6,8.6s-3.9,8.6-8.6,8.6H2480c-4.7,0-8.6-3.9-8.6-8.6s3.9-8.6,8.6-8.6H2562.6
			 M2562.6,83.8H2480c-5.9,0-10.6,4.7-10.6,10.6s4.7,10.6,10.6,10.6h82.6c5.9,0,10.6-4.7,10.6-10.6
			C2573.3,88.6,2568.5,83.8,2562.6,83.8L2562.6,83.8z"/>
	</g>
	<path class="st13" d="M2561.7,276.4c0,4.6-3.7,8.3-8.3,8.3h-64.3c-4.6,0-8.2-3.7-8.2-8.3l0,0c0-4.6,3.7-8.3,8.2-8.3h64.3
		C2558,268.2,2561.7,271.9,2561.7,276.4L2561.7,276.4z"/>
	<path class="st14" d="M2573.3,266.8c0,5.9-4.7,10.6-10.6,10.6h-82.6c-5.9,0-10.6-4.7-10.6-10.6l0,0c0-5.9,4.7-10.6,10.6-10.6h82.6
		C2568.5,256.2,2573.3,260.9,2573.3,266.8L2573.3,266.8z"/>
	<g>
		<path class="st7" d="M2472.3,250.3c-2.6,0-4.9-1.5-5.9-3.9c-0.7-1.6-0.7-3.3-0.1-5c0.6-1.6,1.9-2.9,3.4-3.6l103.1-45.7
			c0.8-0.4,1.7-0.5,2.6-0.5c2.6,0,4.9,1.5,5.9,3.9c1.4,3.3-0.1,7.1-3.3,8.5l-103.1,45.7C2474.1,250.2,2473.2,250.3,2472.3,250.3z"/>
		<path class="st7" d="M2575.4,192.7L2575.4,192.7c2.2,0,4.1,1.3,5,3.3c1.2,2.8-0.1,6-2.8,7.2l-103.1,45.7c-0.7,0.3-1.4,0.5-2.2,0.5
			c-2.2,0-4.1-1.3-5-3.3c-0.6-1.3-0.6-2.8-0.1-4.2s1.6-2.4,2.9-3l103.1-45.7C2573.9,192.8,2574.6,192.7,2575.4,192.7 M2575.4,190.7
			c-1,0-2,0.2-3,0.6L2469.3,237c-3.8,1.6-5.5,6-3.9,9.8c1.2,2.8,4,4.5,6.9,4.5c1,0,2-0.2,3-0.6l103.1-45.7c3.8-1.6,5.5-6.1,3.9-9.8
			C2581,192.4,2578.3,190.7,2575.4,190.7L2575.4,190.7z"/>
	</g>
	<path class="st13" d="M2582.2,195.2L2582.2,195.2c1.6,3.8-0.1,8.2-3.9,9.8l-103.1,45.7c-3.8,1.6-8.2-0.1-9.8-3.9l0,0L2582.2,195.2z
		"/>
	<g>
		<path class="st7" d="M2472.3,208.2c-2.6,0-4.9-1.5-5.9-3.9c-0.7-1.6-0.7-3.3-0.1-5s1.9-2.9,3.4-3.6l103.1-45.7
			c0.8-0.4,1.7-0.5,2.6-0.5c2.6,0,4.9,1.5,5.9,3.9c1.4,3.3-0.1,7.1-3.3,8.5l-103.1,45.7C2474.1,208,2473.2,208.2,2472.3,208.2z"/>
		<path class="st7" d="M2575.4,150.5L2575.4,150.5c2.2,0,4.1,1.3,5,3.3c1.2,2.8-0.1,6-2.8,7.2l-103.1,45.7c-0.7,0.3-1.4,0.5-2.2,0.5
			c-2.2,0-4.2-1.3-5-3.3c-0.6-1.3-0.6-2.8-0.1-4.2s1.6-2.4,2.9-3l103.1-45.7C2573.9,150.7,2574.6,150.5,2575.4,150.5 M2575.4,148.5
			c-1,0-2,0.2-3,0.6l-103.1,45.7c-3.8,1.6-5.5,6.1-3.9,9.8c1.2,2.8,4,4.5,6.9,4.5c1,0,2-0.2,3-0.6l103.1-45.7c3.8-1.6,5.5-6,3.9-9.8
			C2581,150.2,2578.3,148.5,2575.4,148.5L2575.4,148.5z"/>
	</g>
	<path class="st13" d="M2582.2,153L2582.2,153c1.6,3.8-0.1,8.2-3.9,9.8l-103.1,45.7c-3.8,1.6-8.2-0.1-9.8-3.9l0,0L2582.2,153z"/>
	<g>
		<path class="st7" d="M2472.3,166c-2.6,0-4.9-1.5-5.9-3.9c-0.7-1.6-0.7-3.3-0.1-5c0.6-1.6,1.9-2.9,3.4-3.6l103.1-45.7
			c0.8-0.4,1.7-0.5,2.6-0.5c2.6,0,4.9,1.5,5.9,3.9c1.4,3.3-0.1,7.1-3.3,8.5l-103.1,45.7C2474.1,165.9,2473.2,166,2472.3,166z"/>
		<path class="st7" d="M2575.4,108.4L2575.4,108.4c2.2,0,4.1,1.3,5,3.3c1.2,2.8-0.1,6-2.8,7.2l-103.1,45.7c-0.7,0.3-1.4,0.5-2.2,0.5
			c-2.2,0-4.1-1.3-5-3.3c-0.6-1.3-0.6-2.8-0.1-4.2s1.6-2.4,2.9-3l103.1-45.7C2573.9,108.5,2574.6,108.4,2575.4,108.4 M2575.4,106.4
			c-1,0-2,0.2-3,0.6l-103.1,45.7c-3.8,1.6-5.5,6-3.9,9.8c1.2,2.8,4,4.5,6.9,4.5c1,0,2-0.2,3-0.6l103.1-45.7c3.8-1.6,5.5-6.1,3.9-9.8
			C2581,108.1,2578.3,106.4,2575.4,106.4L2575.4,106.4z"/>
	</g>
	<path class="st13" d="M2582.2,110.9L2582.2,110.9c1.6,3.8-0.1,8.2-3.9,9.8l-103.1,45.7c-3.8,1.6-8.2-0.1-9.8-3.9l0,0L2582.2,110.9z
		"/>
</g>
<g class="st4">
	<g>
		<g>
			
				<rect x="2814.1" y="148.6" transform="matrix(0.7071 -0.7071 0.7071 0.7071 710.2388 2059.7483)" class="st15" width="54.8" height="47.9"/>
			<path class="st7" d="M2844,137.6l32.4,32.4l-37.3,37.3l-32.4-32.4L2844,137.6 M2844,134.8l-40.2,40.2l35.3,35.3l40.2-40.2
				L2844,134.8L2844,134.8z"/>
		</g>
		<g>
			<g>
				
					<rect x="2739.7" y="230.4" transform="matrix(0.7071 -0.7071 0.7071 0.7071 628.368 2025.7484)" class="st15" width="39.6" height="47.9"/>
				<path class="st7" d="M2756.7,225l32.4,32.4l-26.6,26.6l-32.4-32.4L2756.7,225 M2756.7,222.1l-29.4,29.4l35.3,35.3l29.4-29.4
					L2756.7,222.1L2756.7,222.1z"/>
			</g>
			
				<rect x="2738.7" y="237.8" transform="matrix(0.7071 -0.7071 0.7071 0.7071 628.3603 2025.7632)" class="st16" width="41.6" height="33.1"/>
			
				<rect x="2814" y="158.3" transform="matrix(0.7071 -0.7071 0.7071 0.7071 707.928 2058.7886)" class="st16" width="50.2" height="33.1"/>
		</g>
	</g>
	<path class="st16" d="M2925.7,124.3l-4,4l0,0l-27.8,27.8l-28.3-7.6l-7.6-28.3l31.9-31.9c-14.1-2.6-29.1,1.5-40,12.4
		c-17.5,17.5-17.5,46,0,63.5s46,17.5,63.5,0C2924.1,153.5,2928.3,138.4,2925.7,124.3z"/>
	<path class="st16" d="M2751.6,262.5c-17.5-17.5-46-17.5-63.5,0s-17.5,46,0,63.5s46,17.5,63.5,0
		C2769.2,308.5,2769.2,280,2751.6,262.5z M2735.4,324.8l-11-1.7l-9.9,5.1l-7.9-7.9l-11-1.7l-1.7-11l-7.9-7.9l5.1-9.9l-1.7-11
		l9.9-5.1l5.1-9.9l11,1.7l9.9-5.1l7.9,7.9l11,1.7l1.7,11l7.9,7.9l-5.1,9.9l1.7,11l-9.9,5.1L2735.4,324.8z"/>
</g>
<g class="st4">
	<g>
		
			<rect x="2768.9" y="129.3" transform="matrix(0.7071 -0.7071 0.7071 0.7071 668.967 2036.6046)" class="st7" width="47.9" height="163"/>
		<path class="st7" d="M2752.3,137.6l113.9,113.9l-32.4,32.4L2719.9,170L2752.3,137.6 M2752.3,134.8l-35.3,35.3l116.7,116.7
			l35.3-35.3L2752.3,134.8L2752.3,134.8z"/>
	</g>
	
		<rect x="2778.7" y="133.9" transform="matrix(0.7071 -0.7071 0.7071 0.7071 668.0306 2038.9816)" class="st16" width="33.1" height="158.4"/>
	<path class="st16" d="M2746.5,100.8c-10.9-10.9-26-15-40-12.4l4,4l27.8,27.8l-7.6,28.3l-28.3,7.6l-31.9-31.9
		c-2.6,14.1,1.5,29.1,12.4,40c17.5,17.5,46,17.5,63.5,0C2764.1,146.8,2764.1,118.4,2746.5,100.8z"/>
	<path class="st16" d="M2908.2,262.5c-17.5-17.5-46-17.5-63.5,0s-17.5,46,0,63.5s46,17.5,63.5,0S2925.7,280,2908.2,262.5z
		 M2900.7,318.5l-11,1.7l-7.9,7.9l-9.9-5.1l-11,1.7l-5.1-9.9l-9.9-5.1l1.7-11l-5.1-9.9l7.9-7.9l1.7-11l11-1.7l7.9-7.9l9.9,5.1
		l11-1.7l5.1,9.9l9.9,5.1l-1.7,11l5.1,9.9l-7.9,7.9L2900.7,318.5z"/>
</g>
</svg>
